<svg version="1.0" xmlns="http://www.w3.org/2000/svg"
     width="300.000000pt" height="354.000000pt" viewBox="0 0 300.000000 354.000000"
     preserveAspectRatio="xMidYMid meet">
    <metadata>
        Created by potrace 1.10, written by Peter Selinger 2001-2011
    </metadata>
    <g transform="translate(0.000000,354.000000) scale(0.100000,-0.100000)"
       fill="#1e88e5" stroke="#1e88e5">
        <path d="M1481 3354 c-17 -63 -113 -246 -246 -469 -136 -227 -175 -313 -211
-451 -13 -54 -26 -99 -28 -101 -1 -2 -16 4 -33 12 -158 79 -478 74 -643 -10
-51 -26 -140 -100 -140 -116 0 -5 29 -9 65 -9 52 0 71 5 101 25 69 47 165 69
299 69 171 0 289 -34 381 -109 23 -19 44 -35 47 -35 2 0 7 31 10 68 9 94 49
248 90 341 18 43 78 152 132 241 99 166 132 231 166 329 35 101 -3 72 -46 -34
-39 -99 -63 -144 -155 -294 -115 -188 -148 -262 -186 -416 -13 -55 -24 -112
-24 -127 0 -15 -4 -29 -9 -33 -6 -3 -41 10 -78 29 -110 56 -172 69 -313 69
-69 0 -149 -6 -180 -13 -63 -15 -155 -54 -165 -69 -7 -13 -55 -15 -55 -3 0 14
32 38 88 67 139 69 412 74 591 10 24 -8 52 -13 62 -10 18 6 36 42 44 87 10 55
68 205 109 283 23 44 85 150 136 235 51 85 116 200 144 254 28 55 56 101 61
103 6 2 25 -26 42 -61 17 -35 91 -161 163 -281 72 -120 146 -248 164 -284 37
-72 86 -209 86 -238 1 -31 38 -103 54 -103 9 0 51 12 93 27 69 23 96 27 228
29 162 4 232 -7 328 -50 29 -13 63 -35 76 -50 l24 -26 -26 0 c-15 0 -44 10
-65 23 -60 38 -111 54 -208 67 -155 20 -342 -12 -452 -76 -52 -31 -57 -27 -67
51 -16 118 -88 319 -148 410 -31 47 -59 95 -105 175 -10 19 -39 69 -64 110
-25 41 -53 96 -62 122 -10 26 -27 55 -39 65 -20 18 -20 18 -13 -12 13 -54 61
-148 176 -340 63 -105 129 -225 148 -267 39 -91 78 -238 89 -338 l8 -72 45 35
c108 82 204 110 380 111 139 0 233 -21 302 -69 31 -21 48 -25 108 -25 l71 0
-20 29 c-31 43 -118 97 -207 127 -67 23 -101 28 -220 32 -152 5 -258 -10 -338
-49 -22 -10 -40 -18 -42 -16 -1 1 -14 47 -28 102 -39 147 -76 224 -238 495
-127 212 -195 340 -235 440 -10 24 -11 24 -22 -16z"/>
        <path d="M1482 2870 c-7 -118 -19 -300 -28 -404 -8 -103 -14 -189 -12 -190 2
-1 26 0 54 2 l51 4 -3 46 c-2 26 -11 173 -19 327 -27 459 -28 466 -43 215z
m27 -471 c2 -83 1 -90 -16 -87 -19 4 -21 37 -8 136 10 70 21 47 24 -49z"/>
        <path d="M1432 2200 c-12 -11 -22 -25 -22 -30 0 -6 -24 -10 -53 -10 -29 0 -58
-5 -65 -12 -16 -16 -15 -50 3 -74 14 -19 14 -19 15 3 0 27 21 34 89 32 56 -2
89 14 52 26 -12 3 -19 11 -16 16 9 13 119 11 133 -3 7 -7 12 -40 12 -77 0 -62
7 -105 24 -158 7 -23 7 -23 -94 -23 -93 0 -102 2 -95 18 60 152 60 155 -20
163 -33 3 -62 4 -64 3 -9 -7 23 -34 40 -34 31 0 32 -19 3 -68 -34 -60 -53 -82
-71 -82 -8 0 -63 45 -121 100 -192 181 -232 192 -706 188 l-339 -3 26 -31 27
-32 135 -4 c91 -2 139 -8 147 -16 11 -11 -12 -13 -120 -10 -72 2 -132 0 -132
-3 0 -3 13 -18 29 -33 27 -26 36 -28 137 -32 151 -7 169 -23 25 -24 l-115 0
33 -34 c33 -34 34 -34 137 -38 71 -2 107 -7 116 -17 11 -11 -2 -13 -85 -8 -53
3 -97 2 -97 -2 0 -4 20 -22 45 -40 35 -25 52 -31 73 -27 36 8 172 -9 186 -24
8 -9 -12 -11 -86 -8 -105 3 -112 -4 -37 -43 29 -14 59 -19 121 -19 91 0 128
-7 128 -22 0 -7 -32 -9 -85 -6 -47 2 -85 2 -85 -1 0 -4 24 -20 53 -37 45 -27
64 -32 140 -36 52 -3 92 -10 100 -17 10 -11 -2 -12 -60 -6 -40 4 -73 4 -73 1
0 -3 24 -18 53 -33 36 -19 75 -29 125 -33 40 -4 78 -13 85 -20 10 -10 2 -11
-40 -8 -29 3 -53 2 -53 -2 0 -3 32 -21 70 -40 119 -57 119 -54 6 -168 -53 -54
-96 -103 -96 -109 0 -14 140 -143 155 -143 5 0 33 52 62 116 48 108 51 119 38
143 -37 72 -71 301 -59 397 l6 50 101 30 c89 25 118 29 222 28 100 0 138 -5
230 -30 l110 -30 3 -75 c4 -98 -13 -223 -44 -321 l-26 -80 48 -110 c27 -60 52
-112 56 -114 11 -7 131 89 153 122 l17 27 -97 97 c-57 58 -96 104 -93 112 3 7
42 32 87 56 44 24 81 45 81 47 0 2 -22 1 -50 -2 -31 -4 -50 -2 -50 4 0 13 48
23 104 23 28 0 61 10 99 31 31 17 57 33 57 35 0 3 -29 2 -65 -2 -42 -4 -65 -3
-65 3 0 14 49 23 124 23 49 0 71 6 114 30 28 17 52 34 52 38 0 4 -38 5 -85 3
-52 -2 -85 1 -85 7 0 15 38 22 129 22 71 0 90 4 132 27 27 14 49 29 49 32 0 3
-40 4 -90 3 -59 -3 -90 0 -90 7 0 14 48 22 145 24 71 2 85 6 118 31 20 16 37
31 37 35 0 4 -44 5 -97 3 -82 -3 -96 -2 -85 9 9 10 46 15 116 17 103 4 104 4
137 38 l33 34 -110 0 c-137 1 -120 17 25 23 99 4 104 5 134 36 l32 31 -135 0
c-110 1 -131 3 -115 13 12 7 72 13 145 15 118 4 126 5 153 30 15 14 27 30 27
34 0 5 -164 8 -367 6 -368 -3 -368 -3 -439 -29 -86 -32 -124 -58 -248 -172
-108 -100 -125 -104 -150 -34 -8 23 -20 84 -27 135 -11 82 -10 94 5 110 9 10
16 21 16 24 0 2 -44 6 -98 7 -86 2 -100 0 -120 -19z m-545 -77 c100 -26 161
-62 252 -147 138 -130 169 -147 206 -106 21 24 41 26 48 5 7 -18 2 -21 -47
-29 -67 -11 -180 -55 -198 -77 -15 -18 -18 -42 -18 -151 0 -88 -3 -129 -11
-126 -6 2 -11 8 -11 13 -1 37 -59 75 -113 75 -18 0 -25 5 -25 19 0 27 -45 60
-91 67 -35 6 -38 9 -33 31 9 35 -19 60 -77 68 -36 5 -49 11 -45 20 9 24 -32
64 -72 70 -61 11 -66 13 -52 30 16 19 -2 43 -48 62 -27 11 -31 17 -26 37 4 19
-1 29 -25 47 -28 20 -29 24 -16 39 13 14 13 19 0 36 -8 10 -15 23 -15 27 0 15
355 6 417 -10z m1636 -9 c-14 -22 -15 -29 -3 -47 9 -15 9 -22 1 -25 -6 -2 -21
-12 -33 -22 -19 -15 -21 -22 -12 -37 10 -16 6 -21 -30 -38 -34 -17 -41 -25
-41 -50 -1 -27 -5 -30 -45 -38 -53 -10 -80 -32 -80 -62 0 -19 -7 -24 -42 -29
-64 -10 -91 -32 -84 -66 5 -27 3 -29 -34 -35 -46 -8 -92 -40 -88 -62 2 -12
-12 -19 -51 -29 -55 -12 -81 -33 -81 -65 0 -9 -7 -19 -15 -23 -14 -5 -15 9 -9
112 9 174 2 184 -155 226 -51 14 -96 28 -99 31 -3 3 0 11 6 17 10 10 19 8 42
-6 18 -10 39 -15 50 -11 11 4 66 49 122 102 169 157 236 181 516 182 l182 1
-17 -26z m-1340 -808 c10 -29 -13 -97 -53 -164 l-20 -33 -39 32 c-22 17 -42
38 -45 46 -7 17 121 156 138 150 5 -2 14 -16 19 -31z m729 -33 c38 -37 68 -73
68 -79 0 -7 -19 -29 -42 -48 -50 -43 -53 -42 -97 60 -26 62 -29 76 -20 103 6
17 14 31 17 31 4 0 37 -30 74 -67z"/>
        <path d="M105 2068 c-30 -103 -40 -209 -26 -299 17 -108 42 -174 103 -265 64
-96 130 -150 289 -236 l66 -36 -5 78 c-4 62 -1 85 16 123 29 65 63 107 116
142 25 17 46 33 46 36 0 3 -17 18 -37 32 -36 26 -37 26 -62 7 -75 -53 -150
-156 -166 -227 -3 -18 -11 -33 -16 -33 -5 0 -44 35 -86 78 -120 119 -163 222
-163 392 0 52 5 114 10 138 10 41 8 45 -22 82 -18 22 -36 40 -40 40 -4 0 -14
-23 -23 -52z m51 -185 c-1 -160 1 -171 26 -232 39 -92 82 -153 149 -215 64
-60 93 -74 114 -56 8 7 30 45 49 84 35 73 110 156 141 156 25 0 17 -16 -21
-45 -20 -15 -49 -48 -65 -73 -24 -39 -34 -69 -55 -179 -2 -13 -9 -23 -15 -23
-24 0 -173 106 -221 159 -62 66 -120 171 -139 251 -26 109 -9 340 25 340 9 0
12 -45 12 -167z"/>
        <path d="M2832 2080 c-30 -37 -32 -41 -22 -82 15 -68 12 -227 -6 -289 -30
-100 -73 -171 -151 -246 -41 -40 -78 -73 -82 -73 -4 0 -13 19 -20 43 -20 67
-55 120 -121 180 l-61 57 -39 -26 c-22 -15 -40 -30 -40 -33 0 -4 14 -15 30
-25 49 -29 101 -87 128 -145 21 -46 24 -63 20 -130 l-4 -77 89 48 c124 68 199
128 253 204 96 135 136 290 116 448 -12 87 -38 186 -50 186 -4 0 -22 -18 -40
-40z m42 -47 c16 -52 26 -167 21 -227 -12 -147 -77 -280 -184 -378 -56 -51
-174 -128 -197 -128 -7 0 -13 23 -16 58 -5 73 -39 142 -102 204 -26 27 -46 52
-43 55 11 11 47 -9 79 -46 60 -68 78 -95 84 -127 3 -18 16 -42 28 -53 19 -18
27 -20 51 -11 50 19 158 139 198 220 50 100 61 167 53 323 -5 107 -4 127 8
127 8 0 17 -8 20 -17z"/>
        <path d="M355 1795 l-16 -55 -57 0 c-55 -1 -56 -1 -36 -18 11 -9 31 -24 44
-33 l25 -16 -17 -54 c-10 -29 -16 -54 -14 -56 2 -2 23 12 47 31 l44 34 48 -35
c26 -19 47 -32 47 -28 0 3 -7 29 -16 56 -9 27 -15 51 -13 53 2 2 24 17 48 35
l44 31 -60 0 -59 0 -18 55 c-9 30 -19 55 -21 55 -2 0 -11 -25 -20 -55z m63
-121 c-10 -23 -19 -29 -42 -29 -24 1 -32 7 -43 32 -12 30 -11 32 19 51 l31 20
24 -22 c22 -20 22 -25 11 -52z"/>
        <path d="M2604 1795 l-18 -55 -59 0 -60 0 44 -31 c24 -18 46 -33 48 -35 2 -2
-4 -26 -13 -55 -10 -28 -16 -53 -14 -54 2 -2 23 11 47 29 l44 34 49 -35 c26
-19 48 -33 48 -30 0 2 -7 24 -15 47 -21 61 -20 64 33 99 l47 31 -62 0 -62 0
-16 55 c-9 30 -18 55 -20 55 -2 0 -12 -25 -21 -55z m76 -96 c0 -4 -4 -11 -10
-14 -5 -3 -10 -14 -10 -24 0 -13 -8 -17 -35 -17 -29 0 -36 4 -45 31 -10 27 -8
32 16 52 l27 21 29 -21 c15 -11 28 -24 28 -28z"/>
        <path d="M1365 1769 c-49 -10 -105 -24 -122 -30 l-33 -11 0 -89 0 -89 290 0
290 0 0 90 c0 50 -1 90 -2 90 -2 0 -56 14 -122 30 -136 35 -177 36 -301 9z
m166 -37 c-6 -2 -8 -9 -5 -17 3 -8 -1 -12 -13 -12 -22 2 -34 27 -19 43 8 8 15
8 28 0 10 -6 14 -12 9 -14z m-78 -23 c-6 -20 -36 -20 -44 1 -8 20 21 41 36 26
7 -6 10 -18 8 -27z m150 1 c-2 -9 -13 -17 -24 -17 -11 -1 -17 3 -13 9 4 6 0
14 -7 19 -11 7 -10 9 4 9 9 0 17 5 17 10 0 6 6 6 13 -2 8 -7 12 -19 10 -28z
m-230 -16 c-2 -7 -13 -14 -23 -17 -20 -5 -23 14 -7 40 10 16 37 -6 30 -23z
m310 -4 c-2 -9 -13 -16 -24 -16 -12 0 -18 5 -15 13 3 7 0 13 -6 13 -7 0 -3 6
7 14 22 16 45 1 38 -24z m-387 -7 c-3 -8 -6 -17 -6 -19 0 -2 -8 -4 -18 -4 -20
0 -26 30 -9 42 16 10 39 -3 33 -19z m467 14 c7 4 8 0 4 -11 -4 -10 -7 -20 -7
-22 0 -2 -9 -4 -21 -4 -11 0 -18 4 -14 9 3 5 0 13 -7 17 -8 5 -6 10 8 14 10 4
21 3 22 -1 2 -5 9 -6 15 -2z m-209 -26 c3 -5 -5 -16 -19 -25 -23 -15 -27 -15
-50 0 -33 21 -23 34 25 34 21 0 41 -4 44 -9z m-114 -18 c7 -6 -23 -23 -35 -20
-5 2 -12 12 -13 21 -3 15 1 17 20 11 12 -4 25 -9 28 -12z m-147 -60 c-3 -7
-11 -13 -18 -13 -17 0 -26 25 -13 38 13 13 38 -7 31 -25z m90 0 c-7 -17 -30
-17 -35 -1 -3 7 0 18 6 24 13 14 36 -5 29 -23z m100 0 c-3 -7 -14 -13 -25 -13
-10 0 -16 5 -13 10 3 6 1 10 -6 10 -7 0 -5 6 6 14 21 15 46 1 38 -21z m91 24
c17 -16 9 -37 -14 -37 -22 0 -31 20 -16 37 14 16 15 16 30 0z m99 -24 c-3 -7
-14 -13 -25 -13 -10 0 -16 5 -13 10 3 6 1 10 -6 10 -7 0 -5 6 6 14 21 15 46 1
38 -21z m90 0 c-3 -7 -14 -13 -25 -13 -10 0 -16 5 -13 10 3 6 1 10 -6 10 -7 0
-5 6 6 14 21 15 46 1 38 -21z"/>
        <path d="M1210 1513 c0 -42 23 -143 37 -160 13 -17 14 -15 9 16 -3 18 -6 62
-6 97 0 57 -2 64 -20 64 -12 0 -20 -7 -20 -17z"/>
        <path d="M1300 1380 c0 -129 3 -148 20 -170 l20 -25 0 170 c0 164 -1 171 -20
171 -19 0 -20 -7 -20 -146z"/>
        <path d="M1389 1526 c-2 -2 -2 -92 1 -200 4 -168 7 -198 23 -213 16 -16 17 -7
17 200 0 204 -1 217 -18 217 -10 0 -21 -2 -23 -4z"/>
        <path d="M1488 1523 c-17 -4 -18 -23 -18 -222 0 -222 5 -256 37 -230 10 9 13
61 13 230 0 120 -3 220 -7 222 -5 2 -16 2 -25 0z"/>
        <path d="M1570 1335 c0 -104 -3 -201 -7 -215 l-6 -25 27 24 26 24 0 192 c0
184 -1 191 -20 191 -19 0 -20 -7 -20 -191z"/>
        <path d="M1659 1525 c-1 0 -2 -76 -4 -169 l-2 -169 24 29 c22 27 23 37 23 171
0 136 -1 142 -20 140 -11 -1 -21 -1 -21 -2z"/>
        <path d="M1740 1433 c0 -51 2 -93 5 -93 7 0 34 102 37 144 2 35 0 40 -20 41
-21 2 -22 -1 -22 -92z"/>
        <path d="M652 1234 c-44 -84 -58 -263 -27 -378 34 -129 124 -240 242 -298 55
-27 80 -33 154 -36 64 -3 100 0 135 12 26 9 48 15 49 13 2 -1 15 -27 30 -57
64 -129 187 -289 245 -320 39 -21 162 120 255 293 37 69 51 87 64 82 49 -21
94 -27 166 -23 109 6 194 45 276 127 90 90 139 219 139 366 0 66 -22 171 -44
213 -14 25 -15 26 -21 7 -62 -183 -154 -264 -267 -235 -24 7 -57 20 -74 29
-30 18 -31 18 -59 -5 -35 -28 -29 -38 47 -80 46 -25 64 -29 128 -29 57 0 84 6
115 22 96 52 103 79 9 36 -79 -36 -173 -38 -228 -4 -46 29 -42 36 10 15 21 -9
65 -16 97 -17 48 0 65 5 100 29 37 27 91 87 116 132 36 63 53 -143 21 -261
-34 -129 -110 -221 -230 -282 -67 -34 -171 -44 -262 -25 l-61 13 -26 -31 c-14
-17 -35 -48 -46 -69 -37 -73 -128 -203 -162 -233 -18 -17 -42 -30 -53 -30 -21
0 -117 103 -155 165 -13 22 -40 71 -60 108 -43 81 -65 94 -129 78 -264 -66
-504 139 -508 434 -3 132 20 183 51 114 19 -42 89 -113 129 -129 44 -17 135
-15 173 4 42 21 48 14 11 -13 -16 -11 -54 -23 -84 -27 -47 -5 -65 -2 -128 25
-76 32 -92 33 -70 6 51 -62 204 -81 290 -37 25 12 56 31 69 42 l23 20 -23 20
c-31 25 -39 25 -89 -1 -59 -31 -138 -30 -188 3 -48 32 -88 91 -117 170 -19 53
-24 59 -33 42z"/>
        <path d="M1240 1214 c-6 -16 -30 -71 -53 -123 -38 -86 -40 -94 -24 -106 9 -7
17 -19 17 -28 0 -25 -80 -67 -128 -67 -22 0 -47 -3 -56 -6 -20 -8 -21 -54 -1
-80 14 -18 14 -18 15 9 l0 27 130 0 c123 0 130 -1 130 -20 0 -25 16 -26 30 -1
15 29 12 58 -6 65 -9 3 -33 6 -55 6 -44 0 -46 3 -21 34 14 19 22 21 41 14 14
-5 28 -7 32 -6 4 2 26 39 48 83 l40 80 -48 50 c-26 28 -55 61 -64 74 l-16 24
-11 -29z m52 -91 c33 -32 35 -51 8 -104 -19 -37 -24 -40 -58 -37 -26 2 -38 8
-40 21 -4 18 46 147 56 147 3 0 19 -12 34 -27z"/>
        <path d="M1730 1219 c-7 -13 -34 -46 -60 -74 l-49 -50 40 -82 c39 -83 46 -89
84 -74 14 6 24 2 37 -15 25 -31 23 -34 -21 -34 -22 0 -46 -3 -55 -6 -19 -7
-21 -55 -4 -72 17 -17 29 -15 26 6 -3 15 10 17 130 20 l132 3 0 -28 c1 -27 1
-27 15 -9 8 11 15 32 15 48 0 30 -7 33 -91 41 -49 4 -109 40 -109 65 0 8 7 20
17 27 15 11 12 23 -32 126 -27 63 -52 118 -56 123 -4 4 -13 -2 -19 -15z m49
-147 c28 -67 22 -92 -24 -92 -30 0 -37 5 -55 40 -26 52 -25 68 7 102 32 34 39
29 72 -50z"/>
        <path d="M1387 1028 c-8 -24 -18 -51 -22 -60 -13 -33 119 -50 225 -27 27 6 50
12 50 14 0 8 -50 115 -54 115 -3 0 -22 -11 -42 -25 -20 -14 -42 -25 -49 -25
-7 0 -29 11 -49 25 -20 14 -39 25 -41 25 -1 0 -10 -19 -18 -42z"/>
        <path d="M685 977 c-21 -49 31 -198 94 -269 72 -82 200 -135 294 -123 29 4 75
16 102 26 28 11 53 19 57 19 4 0 34 -53 68 -118 97 -188 169 -266 219 -235 28
17 119 144 159 222 21 42 46 90 55 108 l17 32 57 -27 c79 -36 186 -36 266 1
97 44 177 134 215 240 20 60 25 94 13 114 -11 21 -9 25 -35 -76 -22 -82 -56
-141 -112 -190 -55 -48 -99 -69 -172 -83 -68 -13 -144 5 -207 48 -30 20 -40
23 -44 13 -2 -8 -33 -70 -67 -139 -60 -117 -143 -238 -171 -247 -20 -7 -110
125 -180 264 -65 129 -67 132 -87 118 -54 -40 -111 -59 -181 -59 -114 0 -209
54 -275 156 -34 53 -45 80 -68 183 -7 31 -11 36 -17 22z"/>
    </g>
</svg>
