<svg version="1.0" xmlns="http://www.w3.org/2000/svg"
 width="300.000000pt" height="300.000000pt" viewBox="0 0 300.000000 313.000000"
 preserveAspectRatio="xMidYMid meet">
<g transform="translate(0.000000,313.000000) scale(0.100000,-0.100000)"
fill="#1e88e5" stroke="#1e88e5">
<path d="M2652 3019 c-130 -22 -316 -119 -456 -237 -72 -61 -198 -194 -236
-248 l-15 -22 -90 21 c-77 18 -122 21 -310 21 -198 0 -230 -2 -315 -23 -52
-13 -117 -32 -144 -43 -54 -21 -76 -20 -311 17 -163 25 -315 18 -315 -14 0 -4
32 -13 71 -20 105 -19 85 -35 -54 -41 -118 -6 -170 -22 -108 -34 17 -3 45 -9
61 -12 55 -10 39 -24 -59 -50 -30 -8 -61 -20 -70 -27 -12 -10 -3 -13 45 -17
66 -6 81 -28 29 -44 -61 -19 -118 -46 -111 -53 4 -4 27 -6 51 -4 26 1 45 -2
45 -8 0 -6 -25 -26 -55 -46 -30 -19 -55 -38 -55 -41 0 -6 29 -1 73 12 28 9 19
-13 -16 -35 l-32 -21 27 0 c37 0 44 -17 14 -32 -31 -13 -34 -28 -6 -28 24 0
26 -16 3 -28 -14 -9 -14 -10 5 -16 23 -8 30 -42 11 -48 -9 -3 -9 -9 0 -25 19
-37 13 -47 -65 -93 -89 -52 -138 -103 -155 -158 -16 -54 -6 -85 42 -129 55
-51 60 -63 47 -106 -15 -50 2 -87 57 -121 61 -39 70 -51 104 -141 17 -44 49
-116 70 -160 38 -78 39 -80 21 -105 -9 -14 -49 -77 -87 -140 -238 -391 -265
-582 -91 -655 120 -50 395 27 601 169 37 25 70 46 73 46 3 0 26 -16 52 -36
117 -89 295 -153 428 -154 69 0 193 29 253 59 70 36 77 73 31 170 -38 79 -35
93 31 197 47 74 50 82 46 132 -3 41 -10 59 -32 82 -82 86 -197 58 -400 -94
-38 -29 -91 -65 -117 -80 -49 -29 -64 -24 -28 9 30 27 111 157 176 281 31 60
65 112 75 116 26 10 37 37 50 120 6 40 24 114 40 163 l29 90 68 24 c110 40
270 125 377 202 139 99 204 129 281 129 47 0 69 5 94 23 45 29 84 106 84 166
l1 46 -60 32 c-33 18 -83 37 -110 44 l-50 11 27 84 c16 46 36 128 45 183 20
121 11 167 -40 205 -50 38 -85 40 -142 11 -52 -26 -95 -33 -95 -14 0 16 107
144 186 222 175 174 428 289 535 244 54 -22 73 -70 67 -171 -6 -97 -33 -196
-54 -196 -26 0 -88 -37 -120 -72 -41 -43 -75 -98 -104 -171 -26 -62 -56 -87
-105 -87 -30 0 -32 13 -4 51 24 34 16 36 -27 10 -39 -24 -51 -64 -29 -97 18
-28 47 -31 71 -6 17 16 17 16 9 -3 -4 -11 -10 -34 -13 -52 -3 -24 1 -34 18
-43 32 -17 71 -8 93 22 21 28 17 52 -5 30 -7 -7 -22 -12 -35 -12 -56 0 0 96
80 136 115 58 217 160 217 219 0 11 14 61 32 110 27 78 31 104 32 196 1 97 -1
108 -24 142 -41 59 -125 84 -228 66z m-412 -254 c0 -16 -32 -64 -62 -91 -45
-42 -77 -59 -90 -46 -8 8 3 19 33 37 24 15 57 45 72 66 25 34 47 50 47 34z
m-140 -159 c0 -2 -16 -27 -35 -56 -39 -58 -42 -72 -20 -90 16 -13 20 -30 8
-30 -5 0 -21 12 -36 26 -21 18 -27 31 -23 47 9 39 106 132 106 103z m686 -79
c19 7 18 -31 -1 -50 -8 -8 -11 -18 -7 -22 4 -5 1 -5 -5 -1 -8 4 -17 -2 -24
-17 -6 -13 -28 -35 -49 -48 -21 -13 -36 -27 -34 -30 2 -3 -8 -4 -21 -1 -40 7
-38 19 10 52 47 32 57 44 29 33 -14 -5 -15 -3 -4 17 9 18 14 20 21 9 6 -10 12
-5 23 21 18 43 27 53 39 41 5 -5 16 -7 23 -4z m-1006 -42 c105 -17 210 -43
224 -56 6 -5 3 -16 -7 -27 -16 -17 -20 -17 -124 9 -274 67 -569 59 -799 -22
-114 -40 -239 -104 -278 -144 -17 -17 -45 -40 -62 -52 -17 -13 -39 -38 -48
-58 -15 -31 -31 -41 -59 -36 -4 0 -6 -2 -6 -6 5 -30 -2 -44 -20 -38 -16 5 -18
2 -14 -17 7 -27 33 -68 33 -51 0 6 9 9 20 6 11 -3 20 -9 20 -14 0 -5 9 -4 20
3 15 9 22 10 31 1 8 -8 19 -9 35 -3 41 16 39 -11 -5 -51 -22 -21 -41 -36 -41
-34 0 20 -141 -152 -177 -215 -15 -27 -37 -53 -48 -59 -17 -8 -17 -10 -2 -10
27 -1 20 -30 -9 -37 -15 -4 -21 -10 -15 -13 8 -5 5 -25 -8 -67 -11 -32 -22
-83 -26 -111 -4 -29 -11 -55 -16 -59 -5 -3 -9 -10 -9 -15 0 -6 5 -7 12 -3 8 5
9 -5 3 -37 -4 -24 -8 -65 -8 -91 0 -27 -1 -48 -3 -48 -8 0 -34 74 -34 97 0 13
-4 22 -9 18 -22 -13 -29 30 -12 66 17 35 17 36 -1 32 -22 -6 -24 20 -3 57 16
28 20 54 5 30 -7 -11 -10 2 -10 43 0 41 5 63 16 75 15 14 15 16 -5 24 -25 9
-28 38 -3 38 13 0 17 8 15 32 -1 18 -2 43 -2 56 -1 13 -5 21 -10 17 -5 -3 -15
1 -23 8 -7 8 -19 12 -26 9 -28 -9 -9 16 28 37 38 21 39 23 42 83 3 64 21 88
36 47 8 -20 12 -16 51 41 23 35 40 69 37 76 -2 7 3 15 12 18 29 9 87 46 74 46
-6 0 -12 10 -12 21 0 16 5 20 20 16 10 -3 18 -1 17 3 -3 12 129 129 149 133
11 1 62 29 115 60 149 90 288 143 444 172 100 18 360 18 475 0z m502 -32 c26
-24 28 -33 28 -97 0 -114 -61 -349 -89 -344 -11 2 -17 16 -19 46 -2 23 -7 42
-12 42 -4 0 -6 -17 -3 -39 l5 -39 -106 -33 c-81 -26 -106 -38 -106 -51 0 -10
-7 -18 -15 -18 -18 0 -20 32 -4 62 9 17 13 18 20 7 6 -10 9 -8 9 9 0 12 10 42
22 65 12 23 21 46 19 52 -1 5 4 14 11 20 7 5 22 26 32 45 11 19 24 44 30 55 6
10 21 30 34 44 12 14 22 30 22 35 0 6 7 1 16 -10 15 -18 15 -18 5 3 -6 12 -11
26 -11 32 0 20 30 11 46 -14 14 -22 16 -44 10 -158 -4 -72 -5 -129 -2 -126 12
12 36 168 36 237 0 92 -10 112 -55 112 -28 0 -40 -7 -67 -42 -52 -66 -65 -89
-169 -293 -78 -155 -100 -191 -119 -193 -25 -4 -40 12 -40 45 0 24 90 202 175
348 118 201 222 270 297 198z m-1473 -15 c82 -10 105 -10 109 0 5 17 15 15 41
-9 18 -17 20 -23 9 -30 -8 -5 -17 -3 -24 6 -9 12 -19 10 -65 -14 l-54 -28
-113 16 c-108 16 -111 17 -92 34 11 9 20 24 20 33 0 13 7 15 33 11 17 -4 79
-12 136 -19z m693 -24 c28 -15 30 -17 14 -26 -12 -7 -26 -7 -42 0 -19 9 -22 8
-17 -3 5 -16 -5 -19 -31 -9 -9 3 -16 13 -16 21 0 8 -5 11 -12 7 -6 -4 -8 -3
-5 3 4 6 18 8 32 5 15 -2 25 0 25 7 0 15 16 14 52 -5z m278 -19 c32 -17 60
-61 60 -95 0 -34 -28 -78 -60 -95 -49 -25 -88 -19 -126 19 -91 91 11 230 126
171z m-470 -5 c0 -15 -27 -23 -47 -16 -15 6 -15 8 -3 16 20 13 50 12 50 0z
m310 5 c0 -3 -7 -17 -16 -31 -12 -17 -15 -39 -12 -75 4 -43 3 -49 -11 -44 -41
17 -144 17 -206 0 -36 -9 -68 -21 -71 -26 -3 -5 -10 -7 -15 -3 -18 11 133 104
251 155 68 29 80 32 80 24z m-397 -12 c13 -12 -15 -33 -44 -33 -27 0 -39 17
-22 33 8 9 58 9 66 0z m168 -9 c10 -13 10 -17 -2 -25 -19 -12 -56 -11 -64 1
-21 34 39 56 66 24z m625 -16 c-8 -13 -28 -44 -42 -70 -15 -26 -31 -46 -37
-45 -6 1 -13 -7 -16 -18 -11 -35 -41 -85 -52 -85 -8 0 -7 -5 1 -16 11 -13 10
-16 -8 -21 -12 -3 -22 -12 -22 -19 0 -8 0 -16 0 -19 0 -3 -12 -25 -25 -50 -30
-53 -42 -123 -26 -154 11 -20 10 -21 -43 -21 -30 0 -61 -3 -70 -6 -11 -4 -16
0 -16 11 0 10 -7 23 -16 30 -14 10 -15 15 -4 34 8 16 8 21 1 16 -7 -4 -20 14
-35 47 -29 63 -117 149 -159 154 -16 2 -34 7 -40 11 -6 3 -36 12 -66 18 -77
15 -75 37 4 50 33 5 66 14 73 18 7 5 21 6 30 2 9 -4 46 -7 82 -8 78 0 104 -11
97 -39 -5 -16 -3 -18 6 -9 16 16 47 14 47 -3 0 -19 84 -13 114 8 59 40 70 61
78 151 3 32 22 41 64 31 16 -4 22 -11 17 -19 -4 -6 9 1 27 16 43 33 58 35 36
5z m-1318 -15 c45 -3 82 -9 82 -12 0 -3 -17 -17 -38 -31 -36 -25 -41 -26 -169
-22 -141 4 -147 7 -123 53 9 16 22 19 88 19 42 0 114 -3 160 -7z m457 -23 c9
-10 15 -26 12 -35 -9 -22 -68 -55 -98 -55 -39 0 -73 31 -65 58 16 48 117 70
151 32z m145 10 c12 -7 12 -13 4 -27 -13 -21 -36 -27 -70 -19 -23 6 -33 34
-17 49 10 10 66 8 83 -3z m-332 -63 c8 -43 -74 -90 -117 -67 -29 15 -26 34 10
65 38 32 101 33 107 2z m-299 -24 c0 -5 -17 -22 -37 -39 -34 -29 -44 -32 -133
-37 l-97 -6 -6 31 c-3 17 -5 33 -3 34 4 4 178 21 235 23 23 0 42 -2 41 -6z
m580 -27 c4 -26 -25 -46 -66 -46 -41 0 -53 23 -27 51 24 27 87 23 93 -5z
m-178 -26 c28 -16 24 -47 -11 -65 -37 -19 -64 -19 -84 0 -20 21 -10 44 28 61
38 16 42 17 67 4z m-264 -26 c14 -36 -54 -87 -83 -64 -20 17 -18 27 11 55 28
29 63 33 72 9z m120 -21 c7 -21 -40 -54 -71 -51 -37 4 -43 21 -16 48 23 23 80
25 87 3z m-367 -11 c0 -4 -15 -22 -32 -39 -26 -24 -45 -32 -89 -37 l-57 -6 -6
32 c-3 17 -5 33 -3 34 4 4 127 21 165 23 12 0 22 -3 22 -7z m836 -32 c51 -17
107 -51 178 -105 27 -21 13 -30 -16 -11 -39 25 -107 30 -179 12 -79 -20 -221
-88 -311 -148 l-67 -45 -113 -5 c-120 -5 -167 -19 -188 -59 -10 -17 -7 -28 14
-60 14 -21 37 -46 50 -54 l24 -16 -45 -66 c-164 -245 -212 -524 -136 -788 5
-17 4 -18 -10 -6 -9 7 -14 17 -11 22 3 5 -22 58 -55 117 -104 186 -105 188
-97 328 15 281 101 474 289 650 243 225 472 305 673 234z m-711 -40 c7 -11
-14 -48 -32 -54 -22 -9 -34 19 -17 42 16 23 39 29 49 12z m81 -5 c8 -20 -13
-45 -37 -45 -28 0 -32 17 -9 40 24 24 39 26 46 5z m92 -7 c16 -16 -13 -48 -45
-48 -29 0 -30 24 -1 44 27 19 31 19 46 4z m-415 -65 c-15 -21 -27 -39 -28 -40
0 0 -8 -3 -18 -5 -15 -2 -20 4 -22 34 -4 39 0 42 73 47 l23 1 -28 -37z m1009
-95 c5 -118 28 -166 91 -197 24 -12 59 -21 78 -21 25 0 43 -8 59 -25 13 -14
39 -28 58 -31 l36 -7 -97 -48 c-175 -88 -305 -120 -341 -84 -13 13 -14 33 -9
110 7 115 -7 175 -50 211 -26 22 -37 25 -76 20 -25 -4 -71 -9 -101 -12 l-55
-5 60 37 c77 47 211 114 229 114 11 0 13 -10 9 -40 -8 -57 14 -185 42 -247 35
-78 69 -95 173 -90 99 4 139 27 49 27 -60 0 -105 16 -145 53 -59 55 -83 327
-28 327 10 0 15 -22 18 -92z m934 53 c35 -16 67 -37 70 -45 11 -28 -26 -114
-62 -145 -30 -27 -41 -30 -93 -30 -77 1 -134 -25 -293 -134 -190 -130 -353
-206 -538 -248 -47 -10 -95 -21 -107 -24 -20 -5 -22 -2 -20 32 2 37 1 38 -34
41 -69 6 -197 -37 -274 -92 -16 -11 -60 -31 -98 -43 -79 -25 -125 -57 -167
-117 -78 -115 -80 -346 -5 -568 13 -40 23 -74 20 -76 -7 -7 -76 108 -111 184
-86 186 -97 395 -30 592 28 80 84 195 132 267 l35 52 62 -26 c49 -20 79 -26
142 -26 92 0 113 9 195 84 30 28 58 50 61 51 3 0 1 -35 -3 -77 -16 -139 9
-183 106 -191 128 -10 425 128 616 287 35 29 78 60 97 69 18 9 33 20 33 25 0
15 -90 -1 -130 -22 -161 -87 -174 -92 -219 -89 -52 4 -77 30 -87 94 l-6 41 70
-5 c92 -6 108 -1 178 54 58 46 175 107 224 117 62 13 171 -1 236 -32z m-827
13 c32 -23 61 -90 61 -146 0 -26 5 -59 10 -74 15 -38 6 -41 -41 -10 -54 36
-78 91 -79 179 0 73 7 80 49 51z m-298 -203 c32 -33 38 -61 12 -61 -9 0 -35
-11 -59 -25 -45 -26 -58 -22 -49 17 3 13 7 39 9 58 3 19 5 36 5 38 1 1 13 2
27 2 15 0 38 -12 55 -29z m-107 0 c9 -14 -20 -21 -97 -22 -54 -1 -65 -3 -42
-9 17 -4 54 -8 83 -9 28 0 52 -5 52 -11 0 -6 -45 -10 -112 -11 -131 0 -119
-16 20 -26 53 -4 81 -10 79 -17 -5 -15 -84 -28 -125 -21 -23 4 -32 3 -27 -4 3
-6 35 -11 70 -11 74 0 91 -13 39 -30 -59 -20 -150 -9 -224 27 -72 35 -98 55
-124 96 -18 26 -18 27 5 35 13 5 31 12 39 15 25 9 358 8 364 -2z m-839 -58
c-19 -48 -27 -176 -17 -270 6 -54 14 -108 18 -120 12 -44 -14 -22 -35 28 -23
57 -26 73 -11 64 18 -11 11 39 -10 73 -24 39 -24 42 -5 42 25 0 17 19 -17 40
l-32 19 37 16 c20 8 37 19 37 24 0 14 -38 24 -67 16 -41 -10 -23 16 37 53 61
36 75 40 65 15z m1525 -61 c0 -4 -10 -13 -21 -20 -23 -15 -47 -3 -35 17 8 12
56 15 56 3z m-1634 -33 c8 -14 -14 -29 -43 -29 -24 0 -38 14 -28 30 8 14 62
13 71 -1z m-2 -61 c23 -32 3 -44 -28 -17 -14 12 -23 26 -20 31 9 15 33 8 48
-14z m1117 -205 c10 -11 10 -16 -1 -23 -9 -6 -5 -12 18 -24 37 -19 43 -20 36
-3 -5 15 32 21 41 6 4 -5 14 -5 27 2 24 13 88 21 88 11 0 -4 -9 -32 -20 -62
-11 -30 -23 -77 -26 -105 -9 -78 -22 -111 -65 -162 -21 -26 -39 -51 -39 -56 0
-9 -120 -229 -129 -237 -20 -16 -63 -97 -68 -126 -6 -39 -3 -40 57 -19 23 8
53 15 65 15 12 0 55 25 96 55 98 73 188 118 239 118 69 0 111 -46 96 -106 -3
-13 -26 -54 -50 -91 -63 -96 -67 -135 -26 -225 31 -68 32 -72 16 -90 -9 -10
-50 -29 -89 -42 -128 -41 -333 -25 -393 32 -28 26 -22 44 9 25 12 -8 46 -19
75 -25 58 -12 239 -13 287 -2 29 7 28 8 -15 14 -25 3 -81 9 -126 12 -45 3
-108 12 -140 20 -35 8 -60 10 -62 4 -2 -5 -11 -9 -20 -9 -12 0 -11 4 6 21 20
18 30 20 102 13 90 -7 270 3 270 17 0 5 -56 9 -124 9 -128 0 -186 6 -186 21 0
9 97 39 210 65 41 10 80 22 85 27 11 9 -81 2 -179 -14 -32 -6 -60 -8 -63 -6
-6 7 208 112 277 136 49 17 51 20 23 20 -35 1 -192 -48 -252 -79 -46 -23 -61
-25 -61 -7 0 13 124 92 210 132 48 22 50 25 21 20 -19 -3 -71 -21 -115 -41
-45 -20 -94 -41 -111 -48 -33 -12 -39 -42 -17 -82 18 -33 10 -64 -20 -82 -15
-9 -28 -19 -28 -22 0 -3 -16 -23 -36 -45 -20 -22 -43 -50 -51 -62 -9 -13 -26
-23 -38 -23 -30 0 -42 30 -19 47 10 7 15 15 12 19 -4 3 2 24 13 47 10 23 19
61 19 85 0 36 -5 47 -35 73 l-35 31 20 22 c43 47 110 146 159 236 29 52 56
102 61 110 26 42 42 90 45 133 2 40 0 47 -16 47 -22 0 -38 22 -20 28 7 2 0 12
-18 23 -27 16 -31 25 -31 61 l0 43 -47 -83 c-57 -100 -133 -189 -152 -178 -31
19 -88 234 -71 266 13 25 111 89 140 92 20 2 24 -1 22 -17 -2 -11 -12 -32 -23
-47 -32 -45 -21 -45 26 2 24 24 46 42 49 39 2 -2 -14 -35 -35 -73 -22 -38 -38
-71 -35 -73 3 -3 21 18 42 46 20 29 38 50 41 47 2 -2 -13 -37 -34 -77 -46 -90
-49 -98 -31 -79 29 30 97 149 89 155 -5 3 -12 19 -16 35 -4 17 -12 30 -18 30
-8 0 -8 3 1 9 10 6 10 10 -3 21 -10 8 -12 16 -6 19 17 11 90 0 102 -16z m-351
-135 c0 -30 16 -107 40 -199 11 -41 54 -89 80 -89 23 0 124 109 151 162 11 22
24 36 28 32 4 -5 23 -29 41 -53 l34 -44 -57 -112 c-54 -107 -211 -355 -224
-355 -3 0 -31 19 -60 42 -178 137 -287 383 -225 504 25 48 73 95 127 122 55
29 65 28 65 -10z m-449 -395 c49 -82 228 -321 287 -384 34 -36 62 -69 62 -71
0 -11 -161 -119 -225 -151 -137 -68 -291 -97 -358 -66 -88 40 -75 193 35 414
39 77 166 295 173 295 2 0 14 -17 26 -37z m259 -38 c42 -83 161 -211 246 -265
72 -45 100 -90 90 -143 -7 -33 -42 -87 -58 -87 -14 0 -86 58 -165 133 -54 52
-65 69 -88 136 -37 111 -75 291 -61 291 1 0 18 -29 36 -65z m140 -448 c0 -7
-17 -21 -37 -32 -21 -11 -40 -22 -43 -25 -30 -30 -49 -40 -56 -29 -4 7 -3 10
2 6 5 -3 32 17 59 44 49 48 75 61 75 36z"/>
<path d="M1676 2338 c-21 -30 -20 -54 4 -78 41 -41 110 -14 110 42 0 55 -83
81 -114 36z m54 -23 c0 -8 -9 -15 -20 -15 -11 0 -20 7 -20 15 0 8 9 15 20 15
11 0 20 -7 20 -15z"/>
</g>
</svg>
